<svg width="205" height="39" viewBox="0 0 205 39" fill="none" xmlns="http://www.w3.org/2000/svg">
<path d="M10 2.68C4.44 2.68 0.12 6.12 0.12 11.52C0.12 16.68 4.12 20 9.68 20C13.16 20 16.12 18.76 17.76 16.32V17.32C17.76 24.32 14.16 27.88 8.48 27.88C6.44 27.88 4.56 27.52 3.08 26.56L1.56 29.68C3.36 30.8 5.88 31.32 8.52 31.32C16.36 31.32 21.76 26.2 21.76 16.64C21.76 7.72 17.52 2.68 10 2.68ZM10.36 16.76C6.44 16.76 4 14.64 4 11.36C4 8.04 6.52 5.92 10.16 5.92C14.52 5.92 16.84 8.44 16.84 11.32C16.84 14.4 14.2 16.76 10.36 16.76ZM29.135 5.72C30.655 5.72 31.735 4.6 31.735 3.16C31.735 1.8 30.615 0.719999 29.135 0.719999C27.655 0.719999 26.535 1.84 26.535 3.24C26.535 4.64 27.655 5.72 29.135 5.72ZM24.295 39C28.655 39 31.055 36.28 31.055 31.96V9.8H27.215V32.04C27.215 34.48 26.095 35.76 24.055 35.76C22.815 35.76 21.695 35.4 20.935 34.76L19.695 37.72C20.775 38.6 22.535 39 24.295 39ZM46.1022 9.6C42.7022 9.6 39.5422 10.56 37.3422 12.32L38.9422 15.2C40.5822 13.8 43.1422 12.92 45.6622 12.92C49.4622 12.92 51.3422 14.8 51.3422 18.04V18.8H45.2622C38.9422 18.8 36.7422 21.6 36.7422 25C36.7422 28.68 39.7822 31.24 44.5822 31.24C47.9022 31.24 50.2622 30.12 51.5422 28.2V31H55.1822V18.2C55.1822 12.4 51.9022 9.6 46.1022 9.6ZM45.2222 28.28C42.3022 28.28 40.5422 26.96 40.5422 24.84C40.5422 23.04 41.6222 21.56 45.4222 21.56H51.3422V24.52C50.3822 26.96 48.1022 28.28 45.2222 28.28ZM67.9684 16.36V7.6C67.9684 5.6 68.9284 4.48 70.9284 4.48H71.9284V1.32H70.1684C66.1684 1.32 64.1284 3.36 64.1284 7.24V16.44C64.1284 17.84 63.4484 18.44 62.3284 18.44H60.9284V21.64H62.3284C63.4484 21.64 64.1284 22.24 64.1284 23.64V32.84C64.1284 36.72 66.1684 38.76 70.1684 38.76H71.9284V35.6H70.9284C68.9284 35.6 67.9684 34.48 67.9684 32.48V23.72C67.9684 21.44 67.2484 20.52 65.7684 20.04C67.2484 19.56 67.9684 18.64 67.9684 16.36ZM202.758 18.44C201.678 18.44 200.998 17.84 200.998 16.44V7.24C200.998 3.36 198.918 1.32 194.918 1.32H193.158V4.48H194.118C196.198 4.48 197.158 5.6 197.158 7.6V16.36C197.158 18.64 197.838 19.56 199.318 20.04C197.838 20.52 197.158 21.44 197.158 23.72V32.48C197.158 34.48 196.198 35.6 194.118 35.6H193.158V38.76H194.918C198.918 38.76 200.998 36.72 200.998 32.84V23.64C200.998 22.24 201.678 21.64 202.758 21.64H204.118V18.44H202.758Z" fill="#599C2B"/>
<path d="M85.5519 31.24C89.3519 31.24 92.5119 29.64 94.1919 26.68L91.2719 24.84C89.9119 26.92 87.8319 27.88 85.5119 27.88C81.3519 27.88 78.2319 25 78.2319 20.4C78.2319 15.88 81.3519 12.96 85.5119 12.96C87.8319 12.96 89.9119 13.92 91.2719 16L94.1919 14.12C92.5119 11.16 89.3519 9.6 85.5519 9.6C79.0319 9.6 74.3519 14.08 74.3519 20.4C74.3519 26.72 79.0319 31.24 85.5519 31.24ZM107.931 31.24C114.291 31.24 118.931 26.72 118.931 20.4C118.931 14.08 114.291 9.6 107.931 9.6C101.571 9.6 96.8909 14.08 96.8909 20.4C96.8909 26.72 101.571 31.24 107.931 31.24ZM107.931 27.88C103.851 27.88 100.771 24.92 100.771 20.4C100.771 15.88 103.851 12.96 107.931 12.96C112.011 12.96 115.051 15.88 115.051 20.4C115.051 24.92 112.011 27.88 107.931 27.88ZM140.402 1.32V13C138.642 10.72 136.002 9.6 133.002 9.6C126.802 9.6 122.282 13.92 122.282 20.4C122.282 26.88 126.802 31.24 133.002 31.24C136.122 31.24 138.842 30.04 140.562 27.64V31H144.242V1.32H140.402ZM133.322 27.88C129.242 27.88 126.162 24.92 126.162 20.4C126.162 15.88 129.242 12.96 133.322 12.96C137.362 12.96 140.442 15.88 140.442 20.4C140.442 24.92 137.362 27.88 133.322 27.88ZM170.667 20.52C170.667 14 166.307 9.6 160.187 9.6C154.067 9.6 149.547 14.12 149.547 20.4C149.547 26.72 154.107 31.24 160.947 31.24C164.467 31.24 167.387 30.04 169.307 27.8L167.187 25.32C165.627 27.04 163.547 27.88 161.067 27.88C156.867 27.88 153.867 25.4 153.387 21.68H170.587C170.627 21.32 170.667 20.84 170.667 20.52ZM160.187 12.84C163.907 12.84 166.587 15.36 166.987 18.92H153.387C153.787 15.32 156.507 12.84 160.187 12.84ZM182.079 31.24C187.719 31.24 191.239 28.8 191.239 24.96C191.239 16.72 177.799 20.8 177.799 15.8C177.799 14.12 179.439 12.88 182.799 12.88C184.879 12.88 186.999 13.32 188.919 14.56L190.559 11.52C188.719 10.32 185.599 9.6 182.839 9.6C177.399 9.6 173.999 12.16 173.999 15.96C173.999 24.4 187.399 20.28 187.399 25.04C187.399 26.84 185.919 27.92 182.359 27.92C179.599 27.92 176.719 27 174.919 25.72L173.319 28.76C175.079 30.16 178.559 31.24 182.079 31.24Z" fill="white"/>
</svg>
